<?xml version="1.0" encoding="UTF-8" standalone="no"?><!DOCTYPE svg PUBLIC "-//W3C//DTD SVG 1.1//EN" "http://www.w3.org/Graphics/SVG/1.1/DTD/svg11.dtd"><svg width="100%" height="100%" viewBox="0 0 156 30" version="1.1" xmlns="http://www.w3.org/2000/svg" xmlns:xlink="http://www.w3.org/1999/xlink" xml:space="preserve" style="fill-rule:evenodd;clip-rule:evenodd;stroke-linejoin:round;stroke-miterlimit:1.41421;"><path id="pr0gramm-logo-background" d="M24,5c0,-1.104 -0.896,-2 -2,-2l-18,0c-1.104,0 -2,0.896 -2,2l0,18c0,1.104 0.896,2 2,2l18,0c1.104,0 2,-0.896 2,-2l0,-18Z" style="fill:#d23c22;"/><g id="pr0gramm-logo-sign"><path d="M20,18c0,-0.552 -0.448,-1 -1,-1l-5,0c-0.552,0 -1,0.448 -1,1c0,0.552 0.448,1 1,1l5,0c0.552,0 1,-0.448 1,-1Z" style="fill:#fff;"/><path d="M7,16.7c0.4,-0.4 0.9,-0.7 1.3,-1.1c0.5,-0.4 0.9,-0.8 1.4,-1.1c0.4,-0.4 0.8,-0.7 1.1,-1c-0.3,-0.2 -0.6,-0.5 -1.1,-0.9c-0.4,-0.4 -0.8,-0.8 -1.3,-1.2c-0.5,-0.4 -0.9,-0.7 -1.4,-1.1c-0.4,-0.4 -0.8,-0.7 -1,-0.9c-0.3,-0.3 -0.4,-0.6 -0.4,-0.9c0,-0.3 0.1,-0.6 0.3,-0.8c0.2,-0.2 0.4,-0.3 0.7,-0.3c0.2,0 0.3,0.1 0.6,0.2c0,0 0.2,0.2 0.5,0.4c0.3,0.3 0.7,0.6 1.1,1c0.4,0.3 0.8,0.7 1.3,1.1c0.5,0.4 0.9,0.8 1.3,1.1c0.4,0.3 0.8,0.6 1.1,0.9c0.3,0.3 0.5,0.4 0.6,0.5c0.3,0.3 0.4,0.6 0.4,1c0,0.3 -0.1,0.6 -0.4,0.9c-0.4,0.3 -0.9,0.7 -1.4,1.1c-0.5,0.4 -1,0.9 -1.6,1.3c-0.5,0.4 -1,0.9 -1.6,1.3c-0.5,0.4 -0.9,0.8 -1.4,1.1c-0.2,0.1 -0.4,0.2 -0.6,0.2c-0.3,0 -0.5,-0.1 -0.7,-0.3c-0.2,-0.2 -0.3,-0.4 -0.3,-0.7c0,-0.3 0.1,-0.6 0.3,-0.9c0.3,-0.3 0.7,-0.6 1.2,-0.9Z" style="fill:#fff;fill-rule:nonzero;"/></g><g><path d="M28.653,22.059l0,-16.118l7.977,0c0.758,0 1.431,0.124 2.018,0.371c0.588,0.247 1.075,0.591 1.461,1.032c0.387,0.441 0.68,0.966 0.881,1.577c0.201,0.611 0.302,1.287 0.302,2.029c0,0.742 -0.097,1.438 -0.29,2.088c-0.193,0.649 -0.479,1.209 -0.858,1.681c-0.379,0.471 -0.862,0.843 -1.45,1.113c-0.587,0.271 -1.275,0.406 -2.064,0.406l-5.357,0l0,5.821l-2.62,0Zm2.62,-13.706l0,5.427l4.453,0c1.02,0 1.766,-0.228 2.238,-0.684c0.472,-0.457 0.707,-1.172 0.707,-2.146c0,-0.927 -0.251,-1.592 -0.753,-1.994c-0.503,-0.402 -1.233,-0.603 -2.192,-0.603l-4.453,0Z" style="fill:#fff;fill-rule:nonzero;"/><path d="M48.412,16.052c-0.17,-0.216 -0.387,-0.371 -0.65,-0.463c-0.262,-0.093 -0.525,-0.14 -0.788,-0.14l-1.531,0l0,6.61l-2.62,0l0,-16.118l7.606,0c0.681,0 1.307,0.108 1.879,0.325c0.572,0.216 1.063,0.529 1.473,0.939c0.409,0.41 0.73,0.897 0.962,1.461c0.232,0.564 0.348,1.194 0.348,1.89c0,1.392 -0.352,2.532 -1.055,3.421c-0.704,0.889 -1.705,1.38 -3.004,1.472l3.062,3.873c0.247,0.31 0.471,0.511 0.672,0.603c0.201,0.093 0.495,0.14 0.881,0.14l0,1.994c-0.154,0.077 -0.34,0.143 -0.556,0.197c-0.217,0.054 -0.418,0.081 -0.603,0.081c-0.464,0 -0.881,-0.158 -1.252,-0.475c-0.372,-0.317 -0.688,-0.646 -0.951,-0.986l-3.873,-4.824Zm-2.969,-3.014l4.337,0c0.99,0 1.685,-0.182 2.087,-0.545c0.402,-0.364 0.603,-1.009 0.603,-1.937c0,-0.742 -0.181,-1.295 -0.545,-1.658c-0.363,-0.363 -0.985,-0.545 -1.867,-0.545l-4.615,0l0,4.685Z" style="fill:#fff;fill-rule:nonzero;"/><path d="M66.292,14.035c0,-0.541 -0.027,-1.137 -0.081,-1.786c-0.054,-0.649 -0.181,-1.256 -0.382,-1.82c-0.201,-0.565 -0.507,-1.036 -0.917,-1.415c-0.409,-0.379 -0.962,-0.568 -1.658,-0.568c-0.695,0 -1.248,0.181 -1.658,0.545c-0.41,0.363 -0.719,0.823 -0.928,1.38c-0.208,0.556 -0.344,1.163 -0.405,1.82c-0.062,0.657 -0.093,1.272 -0.093,1.844c0,0.556 0.027,1.175 0.081,1.855c0.054,0.68 0.186,1.31 0.394,1.89c0.209,0.58 0.514,1.067 0.916,1.461c0.402,0.395 0.959,0.592 1.67,0.592c0.711,0 1.268,-0.197 1.67,-0.592c0.402,-0.394 0.707,-0.881 0.916,-1.461c0.209,-0.58 0.34,-1.206 0.394,-1.878c0.054,-0.673 0.081,-1.295 0.081,-1.867Zm-3.061,-8.094c0.789,0 1.477,0.12 2.064,0.359c0.588,0.24 1.09,0.561 1.508,0.963c0.417,0.402 0.757,0.873 1.02,1.415c0.263,0.541 0.468,1.109 0.615,1.704c0.146,0.595 0.247,1.206 0.301,1.832c0.054,0.626 0.081,1.233 0.081,1.821c0,0.881 -0.069,1.813 -0.208,2.794c-0.14,0.982 -0.414,1.879 -0.824,2.691c-0.41,0.811 -0.982,1.484 -1.716,2.017c-0.734,0.534 -1.697,0.8 -2.887,0.8c-1.191,0 -2.149,-0.27 -2.876,-0.811c-0.727,-0.541 -1.291,-1.222 -1.693,-2.041c-0.402,-0.82 -0.669,-1.716 -0.8,-2.69c-0.132,-0.974 -0.197,-1.894 -0.197,-2.76c0,-0.897 0.069,-1.821 0.208,-2.772c0.14,-0.95 0.41,-1.82 0.812,-2.609c0.402,-0.788 0.97,-1.438 1.705,-1.948c0.734,-0.51 1.697,-0.765 2.887,-0.765Z" style="fill:#fff;fill-rule:nonzero;"/><path d="M72.021,19.647c0.355,0 0.668,0.139 0.939,0.418c0.27,0.278 0.406,0.595 0.406,0.95c0,0.371 -0.136,0.685 -0.406,0.94c-0.271,0.255 -0.584,0.382 -0.939,0.382c-0.371,0 -0.696,-0.123 -0.974,-0.371c-0.279,-0.247 -0.418,-0.564 -0.418,-0.951c0,-0.386 0.139,-0.711 0.418,-0.974c0.278,-0.262 0.603,-0.394 0.974,-0.394Z" style="fill:#fff;fill-rule:nonzero;"/><path d="M82.318,8.376l0,13.683l-2.621,0l0,-13.683l-5.102,0l0,-2.435l13.08,0l-0.765,2.435l-4.592,0Z" style="fill:#fff;fill-rule:nonzero;"/><path d="M96.696,22.337c-1.298,0 -2.439,-0.205 -3.42,-0.614c-0.982,-0.41 -1.798,-0.986 -2.447,-1.728c-0.649,-0.742 -1.14,-1.623 -1.473,-2.644c-0.332,-1.02 -0.498,-2.141 -0.498,-3.363l0,-0.626c0,-1.128 0.193,-2.168 0.579,-3.119c0.387,-0.951 0.928,-1.763 1.624,-2.435c0.696,-0.673 1.523,-1.198 2.481,-1.577c0.959,-0.379 2.01,-0.568 3.154,-0.568c1.145,0 2.196,0.189 3.154,0.568c0.959,0.379 1.782,0.904 2.47,1.577c0.688,0.672 1.226,1.484 1.612,2.435c0.387,0.951 0.58,1.991 0.58,3.119l0,0.626c0,1.222 -0.162,2.343 -0.487,3.363c-0.325,1.021 -0.816,1.902 -1.473,2.644c-0.657,0.742 -1.472,1.318 -2.446,1.728c-0.974,0.409 -2.111,0.614 -3.41,0.614Zm0,-14.239c-1.7,0 -2.98,0.479 -3.838,1.438c-0.858,0.958 -1.287,2.249 -1.287,3.873l0,0.533c0,0.85 0.085,1.639 0.255,2.366c0.17,0.726 0.456,1.356 0.858,1.89c0.402,0.533 0.924,0.951 1.566,1.252c0.641,0.301 1.441,0.452 2.4,0.452c0.99,0 1.813,-0.143 2.47,-0.429c0.657,-0.286 1.183,-0.692 1.577,-1.217c0.394,-0.526 0.676,-1.156 0.846,-1.89c0.17,-0.735 0.256,-1.543 0.256,-2.424l0,-0.533c0,-1.624 -0.43,-2.915 -1.288,-3.873c-0.858,-0.959 -2.129,-1.438 -3.815,-1.438Z" style="fill:#fff;fill-rule:nonzero;"/><path d="M114.16,22.337c-1.299,0 -2.439,-0.205 -3.421,-0.614c-0.982,-0.41 -1.797,-0.986 -2.447,-1.728c-0.649,-0.742 -1.14,-1.623 -1.473,-2.644c-0.332,-1.02 -0.498,-2.141 -0.498,-3.363l0,-0.626c0,-1.128 0.193,-2.168 0.58,-3.119c0.386,-0.951 0.927,-1.763 1.623,-2.435c0.696,-0.673 1.523,-1.198 2.482,-1.577c0.958,-0.379 2.009,-0.568 3.154,-0.568c1.144,0 2.195,0.189 3.154,0.568c0.958,0.379 1.782,0.904 2.47,1.577c0.688,0.672 1.225,1.484 1.611,2.435c0.387,0.951 0.58,1.991 0.58,3.119l0,0.626c0,1.222 -0.162,2.343 -0.487,3.363c-0.325,1.021 -0.815,1.902 -1.473,2.644c-0.657,0.742 -1.472,1.318 -2.446,1.728c-0.974,0.409 -2.111,0.614 -3.409,0.614Zm0,-14.239c-1.701,0 -2.981,0.479 -3.839,1.438c-0.858,0.958 -1.287,2.249 -1.287,3.873l0,0.533c0,0.85 0.085,1.639 0.255,2.366c0.17,0.726 0.456,1.356 0.858,1.89c0.402,0.533 0.924,0.951 1.566,1.252c0.642,0.301 1.442,0.452 2.4,0.452c0.99,0 1.813,-0.143 2.47,-0.429c0.657,-0.286 1.183,-0.692 1.577,-1.217c0.394,-0.526 0.677,-1.156 0.847,-1.89c0.17,-0.735 0.255,-1.543 0.255,-2.424l0,-0.533c0,-1.624 -0.429,-2.915 -1.287,-3.873c-0.858,-0.959 -2.13,-1.438 -3.815,-1.438Z" style="fill:#fff;fill-rule:nonzero;"/><path d="M126.892,5.941l0,13.683l7.838,0l-0.718,2.435l-9.741,0l0,-16.118l2.621,0Z" style="fill:#fff;fill-rule:nonzero;"/><path d="M136.052,10.023c0,-0.804 0.186,-1.481 0.557,-2.03c0.371,-0.548 0.85,-0.997 1.438,-1.345c0.587,-0.348 1.241,-0.599 1.96,-0.753c0.718,-0.155 1.426,-0.232 2.122,-0.232c0.494,0 0.993,0.05 1.495,0.15c0.503,0.101 0.994,0.248 1.473,0.441c0.479,0.193 0.928,0.433 1.345,0.719c0.418,0.286 0.789,0.615 1.113,0.986l-1.785,1.6c-0.542,-0.541 -1.133,-0.916 -1.775,-1.125c-0.641,-0.209 -1.349,-0.313 -2.122,-0.313c-0.355,0 -0.715,0.031 -1.078,0.093c-0.363,0.062 -0.7,0.162 -1.009,0.301c-0.309,0.139 -0.56,0.325 -0.754,0.557c-0.193,0.232 -0.289,0.518 -0.289,0.858c0,0.386 0.05,0.703 0.15,0.951c0.101,0.247 0.248,0.452 0.441,0.614c0.193,0.163 0.421,0.298 0.684,0.406c0.263,0.108 0.557,0.217 0.881,0.325c0.743,0.247 1.492,0.452 2.25,0.614c0.758,0.163 1.5,0.422 2.226,0.777c0.804,0.387 1.45,0.897 1.937,1.531c0.487,0.634 0.73,1.461 0.73,2.481c0,0.882 -0.185,1.624 -0.556,2.227c-0.371,0.603 -0.851,1.09 -1.438,1.461c-0.588,0.371 -1.249,0.634 -1.983,0.788c-0.734,0.155 -1.473,0.232 -2.215,0.232c-0.649,0 -1.291,-0.073 -1.925,-0.22c-0.634,-0.147 -1.233,-0.367 -1.797,-0.661c-0.564,-0.294 -1.078,-0.657 -1.542,-1.09c-0.464,-0.433 -0.851,-0.943 -1.16,-1.531l2.157,-1.136c0.448,0.696 1.032,1.237 1.751,1.623c0.719,0.387 1.565,0.58 2.539,0.58c0.433,0 0.862,-0.038 1.288,-0.116c0.425,-0.077 0.804,-0.201 1.136,-0.371c0.332,-0.17 0.603,-0.398 0.812,-0.684c0.208,-0.286 0.313,-0.63 0.313,-1.032c0,-0.356 -0.054,-0.653 -0.163,-0.893c-0.108,-0.239 -0.262,-0.437 -0.463,-0.591c-0.201,-0.155 -0.433,-0.286 -0.696,-0.394c-0.263,-0.109 -0.541,-0.209 -0.835,-0.302c-0.758,-0.263 -1.519,-0.479 -2.284,-0.649c-0.766,-0.17 -1.512,-0.433 -2.238,-0.789c-0.402,-0.201 -0.77,-0.413 -1.102,-0.638c-0.332,-0.224 -0.615,-0.494 -0.846,-0.811c-0.232,-0.317 -0.414,-0.684 -0.545,-1.102c-0.132,-0.417 -0.198,-0.92 -0.198,-1.507Z" style="fill:#fff;fill-rule:nonzero;"/></g></svg>